<svg width="290" height="40" viewBox="0 0 290 40" fill="none" xmlns="http://www.w3.org/2000/svg">
<rect x="155.5" y="0.5" width="134" height="39" rx="4.5" fill="black"/>
<path d="M223.136 21.7511C220.784 21.7511 218.867 23.5401 218.867 26.0041C218.867 28.4531 220.784 30.2571 223.136 30.2571C225.489 30.2571 227.406 28.4531 227.406 26.0041C227.405 23.5401 225.488 21.7511 223.136 21.7511ZM223.136 28.5831C221.847 28.5831 220.736 27.5201 220.736 26.0051C220.736 24.4741 221.848 23.4271 223.136 23.4271C224.425 23.4271 225.536 24.4741 225.536 26.0051C225.536 27.5191 224.425 28.5831 223.136 28.5831ZM213.822 21.7511C211.47 21.7511 209.553 23.5401 209.553 26.0041C209.553 28.4531 211.47 30.2571 213.822 30.2571C216.175 30.2571 218.092 28.4531 218.092 26.0041C218.092 23.5401 216.175 21.7511 213.822 21.7511ZM213.822 28.5831C212.533 28.5831 211.422 27.5201 211.422 26.0051C211.422 24.4741 212.534 23.4271 213.822 23.4271C215.111 23.4271 216.222 24.4741 216.222 26.0051C216.223 27.5191 215.111 28.5831 213.822 28.5831ZM202.744 23.0571V24.8611H207.062C206.933 25.8761 206.595 26.6171 206.079 27.1321C205.451 27.7601 204.468 28.4531 202.744 28.4531C200.086 28.4531 198.008 26.3101 198.008 23.6521C198.008 20.9941 200.086 18.8511 202.744 18.8511C204.178 18.8511 205.225 19.4151 205.998 20.1401L207.271 18.8671C206.191 17.8361 204.758 17.0471 202.744 17.0471C199.103 17.0471 196.042 20.0111 196.042 23.6521C196.042 27.2931 199.103 30.2571 202.744 30.2571C204.709 30.2571 206.192 29.6121 207.351 28.4041C208.543 27.2121 208.914 25.5361 208.914 24.1831C208.914 23.7651 208.882 23.3781 208.817 23.0561H202.744V23.0571ZM248.052 24.4581C247.698 23.5081 246.618 21.7511 244.411 21.7511C242.22 21.7511 240.399 23.4751 240.399 26.0041C240.399 28.3881 242.204 30.2571 244.62 30.2571C246.569 30.2571 247.697 29.0651 248.165 28.3721L246.715 27.4051C246.232 28.1141 245.571 28.5811 244.62 28.5811C243.67 28.5811 242.993 28.1461 242.558 27.2921L248.245 24.9401L248.052 24.4581ZM242.252 25.8761C242.204 24.2321 243.525 23.3951 244.476 23.3951C245.217 23.3951 245.845 23.7661 246.055 24.2971L242.252 25.8761ZM237.629 30.0001H239.497V17.4991H237.629V30.0001ZM234.567 22.7021H234.503C234.084 22.2021 233.278 21.7511 232.264 21.7511C230.137 21.7511 228.188 23.6201 228.188 26.0211C228.188 28.4051 230.137 30.2581 232.264 30.2581C233.279 30.2581 234.084 29.8071 234.503 29.2921H234.567V29.9041C234.567 31.5311 233.697 32.4011 232.296 32.4011C231.152 32.4011 230.443 31.5801 230.153 30.8871L228.526 31.5641C228.993 32.6911 230.233 34.0771 232.296 34.0771C234.487 34.0771 236.34 32.7881 236.34 29.6461V22.0101H234.568V22.7021H234.567ZM232.425 28.5831C231.136 28.5831 230.057 27.5031 230.057 26.0211C230.057 24.5221 231.136 23.4271 232.425 23.4271C233.697 23.4271 234.696 24.5221 234.696 26.0211C234.696 27.5031 233.697 28.5831 232.425 28.5831ZM256.806 17.4991H252.335V30.0001H254.2V25.2641H256.805C258.873 25.2641 260.907 23.7671 260.907 21.3821C260.907 18.9971 258.874 17.4991 256.806 17.4991ZM256.854 23.5241H254.2V19.2391H256.854C258.249 19.2391 259.041 20.3941 259.041 21.3821C259.041 22.3501 258.249 23.5241 256.854 23.5241ZM268.386 21.7291C267.035 21.7291 265.636 22.3241 265.057 23.6431L266.713 24.3341C267.067 23.6431 267.727 23.4171 268.418 23.4171C269.383 23.4171 270.364 23.9961 270.38 25.0251V25.1541C270.042 24.9611 269.318 24.6721 268.434 24.6721C266.649 24.6721 264.831 25.6531 264.831 27.4861C264.831 29.1591 266.295 30.2361 267.935 30.2361C269.189 30.2361 269.881 29.6731 270.315 29.0131H270.379V29.9781H272.181V25.1851C272.182 22.9671 270.524 21.7291 268.386 21.7291ZM268.16 28.5801C267.55 28.5801 266.697 28.2741 266.697 27.5181C266.697 26.5531 267.759 26.1831 268.676 26.1831C269.495 26.1831 269.882 26.3601 270.38 26.6011C270.235 27.7601 269.238 28.5801 268.16 28.5801ZM278.743 22.0021L276.604 27.4221H276.54L274.32 22.0021H272.31L275.639 29.5771L273.741 33.7911H275.687L280.818 22.0021H278.743ZM261.937 30.0001H263.802V17.4991H261.937V30.0001Z" fill="white"/>
<path d="M202.418 10.2429C202.418 11.0809 202.17 11.7479 201.673 12.2459C201.109 12.8379 200.373 13.1339 199.469 13.1339C198.603 13.1339 197.866 12.8339 197.261 12.2339C196.655 11.6329 196.352 10.8889 196.352 10.0009C196.352 9.11194 196.655 8.36794 197.261 7.76794C197.866 7.16694 198.603 6.86694 199.469 6.86694C199.899 6.86694 200.31 6.95094 200.7 7.11794C201.091 7.28594 201.404 7.50894 201.638 7.78794L201.111 8.31594C200.714 7.84094 200.167 7.60394 199.468 7.60394C198.836 7.60394 198.29 7.82594 197.829 8.26994C197.368 8.71394 197.138 9.29094 197.138 9.99994C197.138 10.7089 197.368 11.2859 197.829 11.7299C198.29 12.1739 198.836 12.3959 199.468 12.3959C200.138 12.3959 200.697 12.1729 201.144 11.7259C201.434 11.4349 201.602 11.0299 201.647 10.5109H199.468V9.78994H202.375C202.405 9.94694 202.418 10.0979 202.418 10.2429Z" fill="white"/>
<path d="M207.028 7.737H204.296V9.639H206.76V10.36H204.296V12.262H207.028V13H203.525V7H207.028V7.737Z" fill="white"/>
<path d="M210.279 13H209.508V7.737H207.832V7H211.955V7.737H210.279V13Z" fill="white"/>
<path d="M214.938 13V7H215.709V13H214.938Z" fill="white"/>
<path d="M219.128 13H218.357V7.737H216.681V7H220.804V7.737H219.128V13Z" fill="white"/>
<path d="M228.609 12.225C228.019 12.831 227.286 13.134 226.409 13.134C225.532 13.134 224.799 12.831 224.21 12.225C223.62 11.619 223.326 10.877 223.326 9.99999C223.326 9.12299 223.62 8.38099 224.21 7.77499C224.799 7.16899 225.532 6.86499 226.409 6.86499C227.281 6.86499 228.013 7.16999 228.605 7.77899C229.197 8.38799 229.493 9.12799 229.493 9.99999C229.493 10.877 229.198 11.619 228.609 12.225ZM224.779 11.722C225.223 12.172 225.766 12.396 226.409 12.396C227.052 12.396 227.596 12.171 228.039 11.722C228.483 11.272 228.706 10.698 228.706 9.99999C228.706 9.30199 228.483 8.72799 228.039 8.27799C227.596 7.82799 227.052 7.60399 226.409 7.60399C225.766 7.60399 225.223 7.82899 224.779 8.27799C224.336 8.72799 224.113 9.30199 224.113 9.99999C224.113 10.698 224.336 11.272 224.779 11.722Z" fill="white"/>
<path d="M230.575 13V7H231.513L234.429 11.667H234.462L234.429 10.511V7H235.2V13H234.395L231.344 8.106H231.311L231.344 9.262V13H230.575Z" fill="white"/>
<path d="M202.418 10.2429C202.418 11.0809 202.17 11.7479 201.673 12.2459C201.109 12.8379 200.373 13.1339 199.469 13.1339C198.603 13.1339 197.866 12.8339 197.261 12.2339C196.655 11.6329 196.352 10.8889 196.352 10.0009C196.352 9.11194 196.655 8.36794 197.261 7.76794C197.866 7.16694 198.603 6.86694 199.469 6.86694C199.899 6.86694 200.31 6.95094 200.7 7.11794C201.091 7.28594 201.404 7.50894 201.638 7.78794L201.111 8.31594C200.714 7.84094 200.167 7.60394 199.468 7.60394C198.836 7.60394 198.29 7.82594 197.829 8.26994C197.368 8.71394 197.138 9.29094 197.138 9.99994C197.138 10.7089 197.368 11.2859 197.829 11.7299C198.29 12.1739 198.836 12.3959 199.468 12.3959C200.138 12.3959 200.697 12.1729 201.144 11.7259C201.434 11.4349 201.602 11.0299 201.647 10.5109H199.468V9.78994H202.375C202.405 9.94694 202.418 10.0979 202.418 10.2429Z" stroke="white" stroke-width="0.2" stroke-miterlimit="10"/>
<path d="M207.028 7.737H204.296V9.639H206.76V10.36H204.296V12.262H207.028V13H203.525V7H207.028V7.737Z" stroke="white" stroke-width="0.2" stroke-miterlimit="10"/>
<path d="M210.279 13H209.508V7.737H207.832V7H211.955V7.737H210.279V13Z" stroke="white" stroke-width="0.2" stroke-miterlimit="10"/>
<path d="M214.938 13V7H215.709V13H214.938Z" stroke="white" stroke-width="0.2" stroke-miterlimit="10"/>
<path d="M219.128 13H218.357V7.737H216.681V7H220.804V7.737H219.128V13Z" stroke="white" stroke-width="0.2" stroke-miterlimit="10"/>
<path d="M228.609 12.225C228.019 12.831 227.286 13.134 226.409 13.134C225.532 13.134 224.799 12.831 224.21 12.225C223.62 11.619 223.326 10.877 223.326 9.99999C223.326 9.12299 223.62 8.38099 224.21 7.77499C224.799 7.16899 225.532 6.86499 226.409 6.86499C227.281 6.86499 228.013 7.16999 228.605 7.77899C229.197 8.38799 229.493 9.12799 229.493 9.99999C229.493 10.877 229.198 11.619 228.609 12.225ZM224.779 11.722C225.223 12.172 225.766 12.396 226.409 12.396C227.052 12.396 227.596 12.171 228.039 11.722C228.483 11.272 228.706 10.698 228.706 9.99999C228.706 9.30199 228.483 8.72799 228.039 8.27799C227.596 7.82799 227.052 7.60399 226.409 7.60399C225.766 7.60399 225.223 7.82899 224.779 8.27799C224.336 8.72799 224.113 9.30199 224.113 9.99999C224.113 10.698 224.336 11.272 224.779 11.722Z" stroke="white" stroke-width="0.2" stroke-miterlimit="10"/>
<path d="M230.575 13V7H231.513L234.429 11.667H234.462L234.429 10.511V7H235.2V13H234.395L231.344 8.106H231.311L231.344 9.262V13H230.575Z" stroke="white" stroke-width="0.2" stroke-miterlimit="10"/>
<g filter="url(#filter0_ii_0_544)">
<path d="M165.436 7.53797C165.145 7.84597 164.973 8.32397 164.973 8.94297V31.059C164.973 31.679 165.145 32.156 165.436 32.464L165.51 32.536L177.899 20.147V20.001V19.855L165.51 7.46497L165.436 7.53797Z" fill="url(#paint0_linear_0_544)"/>
<path d="M182.028 24.278L177.899 20.147V20.001V19.855L182.029 15.725L182.122 15.778L187.015 18.558C188.412 19.352 188.412 20.651 187.015 21.446L182.122 24.226L182.028 24.278Z" fill="url(#paint1_linear_0_544)"/>
<g filter="url(#filter1_i_0_544)">
<path d="M182.122 24.225L177.898 20.001L165.436 32.464C165.896 32.952 166.657 33.012 167.514 32.526L182.122 24.225Z" fill="url(#paint2_linear_0_544)"/>
</g>
<path d="M182.122 15.7769L167.514 7.47694C166.657 6.98994 165.896 7.05094 165.436 7.53894L177.899 20.0019L182.122 15.7769Z" fill="url(#paint3_linear_0_544)"/>
</g>
<rect x="155.5" y="0.5" width="134" height="39" rx="4.5" stroke="#A6A6A6"/>
<rect x="0.5" y="0.5" width="119" height="39" rx="6.5" fill="#0C0D10"/>
<path d="M81.5259 19.201V21.492H80.0898V22.9944H81.5259V28.0994C81.5259 29.8426 82.3144 30.5398 84.2983 30.5398C84.647 30.5398 84.979 30.4983 85.2695 30.4485V28.9627C85.0205 28.9876 84.8628 29.0042 84.5889 29.0042C83.7007 29.0042 83.3105 28.5892 83.3105 27.6429V22.9944H85.2695V21.492H83.3105V19.201H81.5259Z" fill="white"/>
<path d="M90.3234 30.6644C92.963 30.6644 94.5817 28.8963 94.5817 25.9661C94.5817 23.0525 92.9547 21.2762 90.3234 21.2762C87.6837 21.2762 86.0568 23.0525 86.0568 25.9661C86.0568 28.8963 87.6754 30.6644 90.3234 30.6644ZM90.3234 29.0789C88.7711 29.0789 87.8995 27.9417 87.8995 25.9661C87.8995 24.0071 88.7711 22.8616 90.3234 22.8616C91.8673 22.8616 92.7472 24.0071 92.7472 25.9661C92.7472 27.9334 91.8673 29.0789 90.3234 29.0789Z" fill="white"/>
<path d="M95.9666 30.49H97.7512V25.1526C97.7512 23.8826 98.7058 23.0276 100.059 23.0276C100.374 23.0276 100.906 23.0857 101.055 23.1356V21.3758C100.864 21.326 100.524 21.3011 100.258 21.3011C99.0794 21.3011 98.075 21.9485 97.8176 22.8367H97.6848V21.4505H95.9666V30.49Z" fill="white"/>
<path d="M105.486 22.7952C106.806 22.7952 107.669 23.7166 107.711 25.136H103.145C103.245 23.7249 104.166 22.7952 105.486 22.7952ZM107.703 28.0496C107.371 28.7552 106.632 29.1453 105.553 29.1453C104.125 29.1453 103.204 28.1409 103.145 26.5555V26.4559H109.529V25.8333C109.529 22.9944 108.01 21.2762 105.495 21.2762C102.946 21.2762 101.328 23.1107 101.328 25.9993C101.328 28.888 102.913 30.6644 105.503 30.6644C107.57 30.6644 109.014 29.6683 109.421 28.0496H107.703Z" fill="white"/>
<path d="M69.8223 27.1519C69.9599 29.3716 71.8097 30.7912 74.5628 30.7912C77.5052 30.7912 79.3464 29.3028 79.3464 26.9282C79.3464 25.0612 78.2967 24.0288 75.7501 23.4352L74.3821 23.0996C72.7647 22.7211 72.1108 22.2135 72.1108 21.3273C72.1108 20.2088 73.126 19.4775 74.6489 19.4775C76.0942 19.4775 77.0923 20.1916 77.2729 21.3359H79.1485C79.0366 19.2452 77.1955 17.774 74.6747 17.774C71.9646 17.774 70.1578 19.2452 70.1578 21.4564C70.1578 23.2803 71.1816 24.3643 73.4272 24.8892L75.0274 25.2763C76.6707 25.6635 77.3934 26.2313 77.3934 27.1777C77.3934 28.2789 76.2577 29.0791 74.7091 29.0791C73.0486 29.0791 71.8957 28.3306 71.7323 27.1519H69.8223Z" fill="white"/>
<path d="M51.3349 21.3011C50.1064 21.3011 49.0439 21.9153 48.4961 22.9446H48.3633V21.4505H46.645V33.4949H48.4297V29.1204H48.5708C49.0439 30.075 50.0649 30.6395 51.3516 30.6395C53.6343 30.6395 55.0869 28.8382 55.0869 25.9661C55.0869 23.094 53.6343 21.3011 51.3349 21.3011ZM50.8286 29.0374C49.3345 29.0374 48.3965 27.8587 48.3965 25.9744C48.3965 24.0818 49.3345 22.9031 50.8369 22.9031C52.3476 22.9031 53.2524 24.0569 53.2524 25.9661C53.2524 27.8836 52.3476 29.0374 50.8286 29.0374Z" fill="white"/>
<path d="M61.3317 21.3011C60.1032 21.3011 59.0407 21.9153 58.4929 22.9446H58.3601V21.4505H56.6418V33.4949H58.4265V29.1204H58.5676C59.0407 30.075 60.0617 30.6395 61.3483 30.6395C63.6311 30.6395 65.0837 28.8382 65.0837 25.9661C65.0837 23.094 63.6311 21.3011 61.3317 21.3011ZM60.8254 29.0374C59.3313 29.0374 58.3933 27.8587 58.3933 25.9744C58.3933 24.0818 59.3313 22.9031 60.8337 22.9031C62.3444 22.9031 63.2492 24.0569 63.2492 25.9661C63.2492 27.8836 62.3444 29.0374 60.8254 29.0374Z" fill="white"/>
<path d="M43.443 30.49H45.4906L41.0082 18.0752H38.9348L34.4523 30.49H36.4311L37.5754 27.1949H42.3073L43.443 30.49ZM39.8725 20.3293H40.0188L41.8169 25.5774H38.0658L39.8725 20.3293Z" fill="white"/>
<path d="M35.6511 8.71094V14.7H37.8135C39.5981 14.7 40.6316 13.6001 40.6316 11.6868C40.6316 9.80249 39.5898 8.71094 37.8135 8.71094H35.6511ZM36.5808 9.55762H37.7097C38.9507 9.55762 39.6853 10.3462 39.6853 11.6992C39.6853 13.073 38.9631 13.8533 37.7097 13.8533H36.5808V9.55762Z" fill="white"/>
<path d="M43.7967 14.7871C45.1165 14.7871 45.9258 13.9031 45.9258 12.438C45.9258 10.9812 45.1124 10.093 43.7967 10.093C42.4769 10.093 41.6634 10.9812 41.6634 12.438C41.6634 13.9031 42.4727 14.7871 43.7967 14.7871ZM43.7967 13.9944C43.0206 13.9944 42.5848 13.4258 42.5848 12.438C42.5848 11.4585 43.0206 10.8857 43.7967 10.8857C44.5687 10.8857 45.0086 11.4585 45.0086 12.438C45.0086 13.4216 44.5687 13.9944 43.7967 13.9944Z" fill="white"/>
<path d="M52.818 10.1802H51.9256L51.1205 13.6292H51.0499L50.1202 10.1802H49.2652L48.3355 13.6292H48.2691L47.4598 10.1802H46.555L47.8001 14.7H48.7174L49.6471 11.3713H49.7176L50.6515 14.7H51.577L52.818 10.1802Z" fill="white"/>
<path d="M53.8456 14.7H54.7379V12.0562C54.7379 11.3506 55.1571 10.9106 55.817 10.9106C56.477 10.9106 56.7924 11.2717 56.7924 11.998V14.7H57.6847V11.7739C57.6847 10.699 57.1286 10.093 56.12 10.093C55.4394 10.093 54.9911 10.396 54.7711 10.8982H54.7047V10.1802H53.8456V14.7Z" fill="white"/>
<path d="M59.09 14.7H59.9824V8.41626H59.09V14.7Z" fill="white"/>
<path d="M63.3384 14.7871C64.6582 14.7871 65.4675 13.9031 65.4675 12.438C65.4675 10.9812 64.6541 10.093 63.3384 10.093C62.0186 10.093 61.2051 10.9812 61.2051 12.438C61.2051 13.9031 62.0144 14.7871 63.3384 14.7871ZM63.3384 13.9944C62.5623 13.9944 62.1265 13.4258 62.1265 12.438C62.1265 11.4585 62.5623 10.8857 63.3384 10.8857C64.1104 10.8857 64.5503 11.4585 64.5503 12.438C64.5503 13.4216 64.1104 13.9944 63.3384 13.9944Z" fill="white"/>
<path d="M68.1263 14.0234C67.6407 14.0234 67.2879 13.7869 67.2879 13.3801C67.2879 12.9817 67.5701 12.77 68.1927 12.7285L69.2967 12.658V13.0356C69.2967 13.5959 68.7986 14.0234 68.1263 14.0234ZM67.898 14.7747C68.4915 14.7747 68.9854 14.5173 69.2552 14.0649H69.3257V14.7H70.1849V11.6121C70.1849 10.6575 69.5457 10.093 68.4126 10.093C67.3875 10.093 66.657 10.5911 66.5657 11.3672H67.429C67.5286 11.0476 67.8731 10.865 68.3711 10.865C68.9812 10.865 69.2967 11.1348 69.2967 11.6121V12.0022L68.0723 12.0728C66.9974 12.1392 66.3914 12.6082 66.3914 13.4216C66.3914 14.2476 67.0264 14.7747 67.898 14.7747Z" fill="white"/>
<path d="M73.213 14.7747C73.8355 14.7747 74.3626 14.48 74.6324 13.9861H74.703V14.7H75.558V8.41626H74.6656V10.8982H74.5992C74.3543 10.4001 73.8314 10.1055 73.213 10.1055C72.0716 10.1055 71.337 11.0103 71.337 12.438C71.337 13.8699 72.0633 14.7747 73.213 14.7747ZM73.4662 10.9065C74.2132 10.9065 74.6822 11.5 74.6822 12.4421C74.6822 13.3884 74.2174 13.9736 73.4662 13.9736C72.7108 13.9736 72.2584 13.3967 72.2584 12.438C72.2584 11.4875 72.7149 10.9065 73.4662 10.9065Z" fill="white"/>
<path d="M81.3444 14.7871C82.6643 14.7871 83.4736 13.9031 83.4736 12.438C83.4736 10.9812 82.6601 10.093 81.3444 10.093C80.0246 10.093 79.2111 10.9812 79.2111 12.438C79.2111 13.9031 80.0205 14.7871 81.3444 14.7871ZM81.3444 13.9944C80.5683 13.9944 80.1325 13.4258 80.1325 12.438C80.1325 11.4585 80.5683 10.8857 81.3444 10.8857C82.1164 10.8857 82.5563 11.4585 82.5563 12.438C82.5563 13.4216 82.1164 13.9944 81.3444 13.9944Z" fill="white"/>
<path d="M84.6548 14.7H85.5471V12.0562C85.5471 11.3506 85.9663 10.9106 86.6262 10.9106C87.2861 10.9106 87.6016 11.2717 87.6016 11.998V14.7H88.4939V11.7739C88.4939 10.699 87.9377 10.093 86.9292 10.093C86.2485 10.093 85.8003 10.396 85.5803 10.8982H85.5139V10.1802H84.6548V14.7Z" fill="white"/>
<path d="M92.6036 9.05542V10.2009H91.8856V10.9521H92.6036V13.5046C92.6036 14.3762 92.9979 14.7249 93.9898 14.7249C94.1642 14.7249 94.3302 14.7041 94.4754 14.6792V13.9363C94.3509 13.9487 94.2721 13.957 94.1351 13.957C93.691 13.957 93.4959 13.7495 93.4959 13.2764V10.9521H94.4754V10.2009H93.4959V9.05542H92.6036Z" fill="white"/>
<path d="M95.6732 14.7H96.5656V12.0603C96.5656 11.3755 96.9723 10.9148 97.7028 10.9148C98.3336 10.9148 98.6698 11.28 98.6698 12.0022V14.7H99.5622V11.7822C99.5622 10.7073 98.9687 10.0972 98.0058 10.0972C97.3251 10.0972 96.8478 10.4001 96.6278 10.9065H96.5573V8.41626H95.6732V14.7Z" fill="white"/>
<path d="M102.781 10.8525C103.441 10.8525 103.873 11.3132 103.894 12.0229H101.611C101.661 11.3174 102.121 10.8525 102.781 10.8525ZM103.889 13.4797C103.723 13.8325 103.354 14.0276 102.814 14.0276C102.101 14.0276 101.64 13.5254 101.611 12.7327V12.6829H104.802V12.3716C104.802 10.9521 104.043 10.093 102.785 10.093C101.511 10.093 100.702 11.0103 100.702 12.4546C100.702 13.8989 101.495 14.7871 102.789 14.7871C103.823 14.7871 104.545 14.2891 104.748 13.4797H103.889Z" fill="white"/>
<path d="M24.769 20.3008C24.7907 18.6198 25.6934 17.0292 27.1256 16.1488C26.2221 14.8584 24.7088 14.0403 23.1344 13.9911C21.4552 13.8148 19.8272 14.9959 18.9715 14.9959C18.0992 14.9959 16.7817 14.0086 15.363 14.0378C13.5137 14.0975 11.7898 15.1489 10.8901 16.7656C8.95607 20.1141 10.3987 25.0351 12.2513 27.7417C13.1782 29.0671 14.2615 30.5475 15.6789 30.495C17.066 30.4375 17.584 29.6105 19.2583 29.6105C20.9171 29.6105 21.4031 30.495 22.8493 30.4616C24.3377 30.4375 25.2754 29.1304 26.1698 27.7925C26.8358 26.8481 27.3483 25.8044 27.6882 24.7C25.9391 23.9602 24.771 22.2 24.769 20.3008Z" fill="white"/>
<path d="M22.0373 12.2111C22.8489 11.2369 23.2487 9.98469 23.1518 8.72046C21.912 8.85068 20.7668 9.44324 19.9443 10.3801C19.14 11.2954 18.7214 12.5255 18.8006 13.7415C20.0408 13.7542 21.2601 13.1777 22.0373 12.2111Z" fill="white"/>
<rect x="0.5" y="0.5" width="119" height="39" rx="6.5" stroke="#A6A6A6"/>
<defs>
<filter id="filter0_ii_0_544" x="164.973" y="7.14087" width="23.0898" height="25.7208" filterUnits="userSpaceOnUse" color-interpolation-filters="sRGB">
<feFlood flood-opacity="0" result="BackgroundImageFix"/>
<feBlend mode="normal" in="SourceGraphic" in2="BackgroundImageFix" result="shape"/>
<feColorMatrix in="SourceAlpha" type="matrix" values="0 0 0 0 0 0 0 0 0 0 0 0 0 0 0 0 0 0 127 0" result="hardAlpha"/>
<feOffset dy="-0.15"/>
<feComposite in2="hardAlpha" operator="arithmetic" k2="-1" k3="1"/>
<feColorMatrix type="matrix" values="0 0 0 0 0 0 0 0 0 0 0 0 0 0 0 0 0 0 0.12 0"/>
<feBlend mode="normal" in2="shape" result="effect1_innerShadow_0_544"/>
<feColorMatrix in="SourceAlpha" type="matrix" values="0 0 0 0 0 0 0 0 0 0 0 0 0 0 0 0 0 0 127 0" result="hardAlpha"/>
<feOffset dy="0.15"/>
<feComposite in2="hardAlpha" operator="arithmetic" k2="-1" k3="1"/>
<feColorMatrix type="matrix" values="0 0 0 0 1 0 0 0 0 1 0 0 0 0 1 0 0 0 0.25 0"/>
<feBlend mode="normal" in2="effect1_innerShadow_0_544" result="effect2_innerShadow_0_544"/>
</filter>
<filter id="filter1_i_0_544" x="165.436" y="20.001" width="16.686" height="12.8607" filterUnits="userSpaceOnUse" color-interpolation-filters="sRGB">
<feFlood flood-opacity="0" result="BackgroundImageFix"/>
<feBlend mode="normal" in="SourceGraphic" in2="BackgroundImageFix" result="shape"/>
<feColorMatrix in="SourceAlpha" type="matrix" values="0 0 0 0 0 0 0 0 0 0 0 0 0 0 0 0 0 0 127 0" result="hardAlpha"/>
<feOffset dy="-0.15"/>
<feComposite in2="hardAlpha" operator="arithmetic" k2="-1" k3="1"/>
<feColorMatrix type="matrix" values="0 0 0 0 0 0 0 0 0 0 0 0 0 0 0 0 0 0 0.08 0"/>
<feBlend mode="normal" in2="shape" result="effect1_innerShadow_0_544"/>
</filter>
<linearGradient id="paint0_linear_0_544" x1="176.801" y1="8.70897" x2="160.019" y2="25.491" gradientUnits="userSpaceOnUse">
<stop stop-color="#00A0FF"/>
<stop offset="0.0066" stop-color="#00A1FF"/>
<stop offset="0.2601" stop-color="#00BEFF"/>
<stop offset="0.5122" stop-color="#00D2FF"/>
<stop offset="0.7604" stop-color="#00DFFF"/>
<stop offset="1" stop-color="#00E3FF"/>
</linearGradient>
<linearGradient id="paint1_linear_0_544" x1="188.833" y1="20.001" x2="164.638" y2="20.001" gradientUnits="userSpaceOnUse">
<stop stop-color="#FFE000"/>
<stop offset="0.4087" stop-color="#FFBD00"/>
<stop offset="0.7754" stop-color="#FFA500"/>
<stop offset="1" stop-color="#FF9C00"/>
</linearGradient>
<linearGradient id="paint2_linear_0_544" x1="179.828" y1="22.2949" x2="157.07" y2="45.0534" gradientUnits="userSpaceOnUse">
<stop stop-color="#FF3A44"/>
<stop offset="1" stop-color="#C31162"/>
</linearGradient>
<linearGradient id="paint3_linear_0_544" x1="162.297" y1="0.176745" x2="172.46" y2="10.339" gradientUnits="userSpaceOnUse">
<stop stop-color="#32A071"/>
<stop offset="0.0685" stop-color="#2DA771"/>
<stop offset="0.4762" stop-color="#15CF74"/>
<stop offset="0.8009" stop-color="#06E775"/>
<stop offset="1" stop-color="#00F076"/>
</linearGradient>
</defs>
</svg>
